{
  "accessors": [
    {
      "bufferView": 2,
      "componentType": 5126,
      "count": 4,
      "max": [
        0.41464701294898987,
        -2.2063379287719727,
        0.33560499548912048
      ],
      "min": [
        -0.41464701294898987,
        -2.2341539859771729,
        0.33519899845123291
      ],
      "type": "VEC3"
    },
    {
      "bufferView": 2,
      "byteOffset": 48,
      "componentType": 5126,
      "count": 4,
      "max": [
        0,
        0,
        0
      ],
      "min": [
        0,
        0,
        0
      ],
      "type": "VEC3"
    },
    {
      "bufferView": 1,
      "componentType": 5126,
      "count": 4,
      "max": [
        0,
        0
      ],
      "min": [
        0,
        0
      ],
      "type": "VEC2"
    },
    {
      "bufferView": 0,
      "componentType": 5125,
      "count": 4,
      "max": [
        3
      ],
      "min": [
        0
      ],
      "type": "SCALAR"
    },
    {
      "bufferView": 2,
      "byteOffset": 96,
      "componentType": 5126,
      "count": 2587,
      "max": [
        0.81202900409698486,
        2.9282510280609131,
        0.28090599179267883
      ],
      "min": [
        -0.81202900409698486,
        -2.6358349323272705,
        -0.72428697347640991
      ],
      "type": "VEC3"
    },
    {
      "bufferView": 2,
      "byteOffset": 31140,
      "componentType": 5126,
      "count": 2587,
      "max": [
        1,
        0.9999687671661377,
        0.99999773502349854
      ],
      "min": [
        -1,
        -1,
        -0.99978435039520264
      ],
      "type": "VEC3"
    },
    {
      "bufferView": 3,
      "componentType": 5126,
      "count": 2587,
      "max": [
        1,
        0.99999773502349854,
        0.99175524711608887,
        1
      ],
      "min": [
        -0.99999755620956421,
        -0.9999968409538269,
        -0.99966281652450562,
        -1
      ],
      "type": "VEC4"
    },
    {
      "bufferView": 1,
      "byteOffset": 32,
      "componentType": 5126,
      "count": 2587,
      "max": [
        0.96414601802825928,
        0.98962801694869995
      ],
      "min": [
        0.011819000355899334,
        0.035486999899148941
      ],
      "type": "VEC2"
    },
    {
      "bufferView": 0,
      "byteOffset": 16,
      "componentType": 5125,
      "count": 10548,
      "max": [
        2586
      ],
      "min": [
        0
      ],
      "type": "SCALAR"
    },
    {
      "bufferView": 2,
      "byteOffset": 62184,
      "componentType": 5126,
      "count": 4831,
      "max": [
        1.0822139978408813,
        2.9235448837280273,
        0.67219102382659912
      ],
      "min": [
        -1.0822139978408813,
        -2.7616848945617676,
        -0.78658998012542725
      ],
      "type": "VEC3"
    },
    {
      "bufferView": 2,
      "byteOffset": 120156,
      "componentType": 5126,
      "count": 4831,
      "max": [
        1,
        1,
        1
      ],
      "min": [
        -1,
        -1,
        -1
      ],
      "type": "VEC3"
    },
    {
      "bufferView": 3,
      "byteOffset": 41392,
      "componentType": 5126,
      "count": 4831,
      "max": [
        1,
        1,
        0.99997663497924805,
        1
      ],
      "min": [
        -1,
        -0.99968016147613525,
        -0.99999457597732544,
        -1
      ],
      "type": "VEC4"
    },
    {
      "bufferView": 1,
      "byteOffset": 20728,
      "componentType": 5126,
      "count": 4831,
      "max": [
        0.99923902750015259,
        0.99784797430038452
      ],
      "min": [
        0.0086030000820755959,
        0.024333000183105469
      ],
      "type": "VEC2"
    },
    {
      "bufferView": 0,
      "byteOffset": 42208,
      "componentType": 5125,
      "count": 12957,
      "max": [
        4830
      ],
      "min": [
        0
      ],
      "type": "SCALAR"
    },
    {
      "bufferView": 2,
      "byteOffset": 178128,
      "componentType": 5126,
      "count": 4671,
      "max": [
        1.1267180442810059,
        2.9282510280609131,
        0.61801701784133911
      ],
      "min": [
        -1.1267180442810059,
        -2.7188389301300049,
        -0.78658998012542725
      ],
      "type": "VEC3"
    },
    {
      "bufferView": 2,
      "byteOffset": 234180,
      "componentType": 5126,
      "count": 4671,
      "max": [
        1,
        0.99956667423248291,
        1
      ],
      "min": [
        -1,
        -1,
        -1
      ],
      "type": "VEC3"
    },
    {
      "bufferView": 3,
      "byteOffset": 118688,
      "componentType": 5126,
      "count": 4671,
      "max": [
        1,
        0.99999767541885376,
        0.99982082843780518,
        1
      ],
      "min": [
        -0.99999117851257324,
        -1,
        -0.99949938058853149,
        -1
      ],
      "type": "VEC4"
    },
    {
      "bufferView": 1,
      "byteOffset": 59376,
      "componentType": 5126,
      "count": 4671,
      "max": [
        0.99319201707839966,
        0.99938201904296875
      ],
      "min": [
        0.0017740000039339066,
        0.025418000295758247
      ],
      "type": "VEC2"
    },
    {
      "bufferView": 0,
      "byteOffset": 94036,
      "componentType": 5125,
      "count": 14565,
      "max": [
        4670
      ],
      "min": [
        0
      ],
      "type": "SCALAR"
    },
    {
      "bufferView": 2,
      "byteOffset": 290232,
      "componentType": 5126,
      "count": 4287,
      "max": [
        0.93967801332473755,
        2.9235448837280273,
        0.64261001348495483
      ],
      "min": [
        -1.1324080228805542,
        -2.7616848945617676,
        -0.78658998012542725
      ],
      "type": "VEC3"
    },
    {
      "bufferView": 2,
      "byteOffset": 341676,
      "componentType": 5126,
      "count": 4287,
      "max": [
        0.99989396333694458,
        0.99999994039535522,
        1
      ],
      "min": [
        -1,
        -0.99989646673202515,
        -1
      ],
      "type": "VEC3"
    },
    {
      "bufferView": 3,
      "byteOffset": 193424,
      "componentType": 5126,
      "count": 4287,
      "max": [
        1,
        1,
        0.9998708963394165,
        1
      ],
      "min": [
        -0.99992859363555908,
        -1,
        -1,
        -1
      ],
      "type": "VEC4"
    },
    {
      "bufferView": 1,
      "byteOffset": 96744,
      "componentType": 5126,
      "count": 4287,
      "max": [
        0.99839699268341064,
        0.99803698062896729
      ],
      "min": [
        0.0067579997703433037,
        0.015161000192165375
      ],
      "type": "VEC2"
    },
    {
      "bufferView": 0,
      "byteOffset": 152296,
      "componentType": 5125,
      "count": 14517,
      "max": [
        4286
      ],
      "min": [
        0
      ],
      "type": "SCALAR"
    },
    {
      "bufferView": 2,
      "byteOffset": 393120,
      "componentType": 5126,
      "count": 4033,
      "max": [
        1.1537359952926636,
        2.7381811141967773,
        0.66876101493835449
      ],
      "min": [
        -1.1537359952926636,
        -2.7585599422454834,
        -0.78606599569320679
      ],
      "type": "VEC3"
    },
    {
      "bufferView": 2,
      "byteOffset": 441516,
      "componentType": 5126,
      "count": 4033,
      "max": [
        0.99998766183853149,
        0.9999043345451355,
        0.99993568658828735
      ],
      "min": [
        -0.99977242946624756,
        -0.99991947412490845,
        -1
      ],
      "type": "VEC3"
    },
    {
      "bufferView": 3,
      "byteOffset": 262016,
      "componentType": 5126,
      "count": 4033,
      "max": [
        1,
        0.99998998641967773,
        0.99999743700027466,
        1
      ],
      "min": [
        -0.99996024370193481,
        -1,
        -0.9997212290763855,
        -1
      ],
      "type": "VEC4"
    },
    {
      "bufferView": 1,
      "byteOffset": 131040,
      "componentType": 5126,
      "count": 4033,
      "max": [
        0.99807202816009521,
        0.99422401189804077
      ],
      "min": [
        0.012094000354409218,
        0.0055789998732507229
      ],
      "type": "VEC2"
    },
    {
      "bufferView": 0,
      "byteOffset": 210364,
      "componentType": 5125,
      "count": 14526,
      "max": [
        4032
      ],
      "min": [
        0
      ],
      "type": "SCALAR"
    },
    {
      "bufferView": 2,
      "byteOffset": 489912,
      "componentType": 5126,
      "count": 1799,
      "max": [
        1.0882730484008789,
        2.3196320533752441,
        0.64339399337768555
      ],
      "min": [
        -1.0882730484008789,
        -2.7558379173278809,
        -0.69626599550247192
      ],
      "type": "VEC3"
    },
    {
      "bufferView": 2,
      "byteOffset": 511500,
      "componentType": 5126,
      "count": 1799,
      "max": [
        0.99888867139816284,
        0.99913549423217773,
        0.99999910593032837
      ],
      "min": [
        -0.99967199563980103,
        -1,
        -0.99903178215026855
      ],
      "type": "VEC3"
    },
    {
      "bufferView": 3,
      "byteOffset": 326544,
      "componentType": 5126,
      "count": 1799,
      "max": [
        0.99993395805358887,
        0.99999153614044189,
        0.99987661838531494,
        1
      ],
      "min": [
        -0.98449254035949707,
        -0.9989280104637146,
        -0.99992179870605469,
        -1
      ],
      "type": "VEC4"
    },
    {
      "bufferView": 1,
      "byteOffset": 163304,
      "componentType": 5126,
      "count": 1799,
      "max": [
        0.88336300849914551,
        0.98628699779510498
      ],
      "min": [
        0.0037140001077204943,
        0.06107499822974205
      ],
      "type": "VEC2"
    },
    {
      "bufferView": 0,
      "byteOffset": 268468,
      "componentType": 5125,
      "count": 8082,
      "max": [
        1798
      ],
      "min": [
        0
      ],
      "type": "SCALAR"
    },
    {
      "bufferView": 2,
      "byteOffset": 533088,
      "componentType": 5126,
      "count": 258,
      "max": [
        0.80113101005554199,
        1.8367639780044556,
        0.60302901268005371
      ],
      "min": [
        -0.80113101005554199,
        -2.1697189807891846,
        -0.38208198547363281
      ],
      "type": "VEC3"
    },
    {
      "bufferView": 2,
      "byteOffset": 536184,
      "componentType": 5126,
      "count": 258,
      "max": [
        0.95291227102279663,
        0.71127909421920776,
        0.95254158973693848
      ],
      "min": [
        -0.95291227102279663,
        -0.5044136643409729,
        0.27337712049484253
      ],
      "type": "VEC3"
    },
    {
      "bufferView": 3,
      "byteOffset": 355328,
      "componentType": 5126,
      "count": 258,
      "max": [
        1,
        0.68062227964401245,
        0.6740344762802124,
        1
      ],
      "min": [
        -1,
        -0.99984443187713623,
        -0.6562492847442627,
        -1
      ],
      "type": "VEC4"
    },
    {
      "bufferView": 1,
      "byteOffset": 177696,
      "componentType": 5126,
      "count": 258,
      "max": [
        0.81232702732086182,
        0.90087598562240601
      ],
      "min": [
        0.65529400110244751,
        0.52713102102279663
      ],
      "type": "VEC2"
    },
    {
      "bufferView": 0,
      "byteOffset": 300796,
      "componentType": 5125,
      "count": 1017,
      "max": [
        257
      ],
      "min": [
        0
      ],
      "type": "SCALAR"
    }
  ],
  "asset": {
    "extras": {
      "author": "skartemka (https://sketchfab.com/skartemka)",
      "license": "CC-BY-4.0 (http://creativecommons.org/licenses/by/4.0/)",
      "source": "https://sketchfab.com/3d-models/flying-car-d0efc1fe6c5c419896fe239d85c5e589",
      "title": "Flying Car"
    },
    "generator": "Sketchfab-6.9.0",
    "version": "2.0"
  },
  "bufferViews": [
    {
      "buffer": 0,
      "byteLength": 304864,
      "byteOffset": 0,
      "name": "floatBufferViews",
      "target": 34963
    },
    {
      "buffer": 0,
      "byteLength": 179760,
      "byteOffset": 304864,
      "byteStride": 8,
      "name": "floatBufferViews",
      "target": 34962
    },
    {
      "buffer": 0,
      "byteLength": 539280,
      "byteOffset": 484624,
      "byteStride": 12,
      "name": "floatBufferViews",
      "target": 34962
    },
    {
      "buffer": 0,
      "byteLength": 359456,
      "byteOffset": 1023904,
      "byteStride": 16,
      "name": "floatBufferViews",
      "target": 34962
    }
  ],
  "buffers": [
    {
      "byteLength": 1383360,
      "uri": "scene.bin"
    }
  ],
  "images": [
    {
      "uri": "textures/material_baseColor.png"
    },
    {
      "uri": "textures/material_metallicRoughness.png"
    },
    {
      "uri": "textures/material_emissive.png"
    },
    {
      "uri": "textures/material_normal.png"
    },
    {
      "uri": "textures/glass_baseColor.png"
    },
    {
      "uri": "textures/glass_metallicRoughness.png"
    }
  ],
  "materials": [
    {
      "doubleSided": true,
      "emissiveFactor": [
        1,
        1,
        1
      ],
      "emissiveTexture": {
        "index": 2,
        "texCoord": 0
      },
      "name": "material",
      "normalTexture": {
        "index": 3,
        "scale": 1,
        "texCoord": 0
      },
      "occlusionTexture": {
        "index": 1,
        "strength": 1,
        "texCoord": 0
      },
      "pbrMetallicRoughness": {
        "baseColorFactor": [
          1,
          1,
          1,
          1
        ],
        "baseColorTexture": {
          "index": 0,
          "texCoord": 0
        },
        "metallicFactor": 1,
        "metallicRoughnessTexture": {
          "index": 1,
          "texCoord": 0
        },
        "roughnessFactor": 1
      }
    },
    {
      "alphaMode": "BLEND",
      "doubleSided": true,
      "emissiveFactor": [
        0,
        0,
        0
      ],
      "name": "glass",
      "pbrMetallicRoughness": {
        "baseColorFactor": [
          1,
          1,
          1,
          1
        ],
        "baseColorTexture": {
          "index": 4,
          "texCoord": 0
        },
        "metallicFactor": 0,
        "metallicRoughnessTexture": {
          "index": 5,
          "texCoord": 0
        },
        "roughnessFactor": 1
      }
    }
  ],
  "meshes": [
    {
      "primitives": [
        {
          "attributes": {
            "NORMAL": 1,
            "POSITION": 0,
            "TEXCOORD_0": 2
          },
          "indices": 3,
          "material": 0,
          "mode": 1
        }
      ]
    },
    {
      "primitives": [
        {
          "attributes": {
            "NORMAL": 5,
            "POSITION": 4,
            "TANGENT": 6,
            "TEXCOORD_0": 7
          },
          "indices": 8,
          "material": 0,
          "mode": 4
        }
      ]
    },
    {
      "primitives": [
        {
          "attributes": {
            "NORMAL": 10,
            "POSITION": 9,
            "TANGENT": 11,
            "TEXCOORD_0": 12
          },
          "indices": 13,
          "material": 0,
          "mode": 4
        }
      ]
    },
    {
      "primitives": [
        {
          "attributes": {
            "NORMAL": 15,
            "POSITION": 14,
            "TANGENT": 16,
            "TEXCOORD_0": 17
          },
          "indices": 18,
          "material": 0,
          "mode": 4
        }
      ]
    },
    {
      "primitives": [
        {
          "attributes": {
            "NORMAL": 20,
            "POSITION": 19,
            "TANGENT": 21,
            "TEXCOORD_0": 22
          },
          "indices": 23,
          "material": 0,
          "mode": 4
        }
      ]
    },
    {
      "primitives": [
        {
          "attributes": {
            "NORMAL": 25,
            "POSITION": 24,
            "TANGENT": 26,
            "TEXCOORD_0": 27
          },
          "indices": 28,
          "material": 0,
          "mode": 4
        }
      ]
    },
    {
      "primitives": [
        {
          "attributes": {
            "NORMAL": 30,
            "POSITION": 29,
            "TANGENT": 31,
            "TEXCOORD_0": 32
          },
          "indices": 33,
          "material": 0,
          "mode": 4
        }
      ]
    },
    {
      "primitives": [
        {
          "attributes": {
            "NORMAL": 35,
            "POSITION": 34,
            "TANGENT": 36,
            "TEXCOORD_0": 37
          },
          "indices": 38,
          "material": 1,
          "mode": 4
        }
      ]
    }
  ],
  "nodes": [
    {
      "children": [
        1
      ],
      "name": "RootNode (gltf orientation matrix)",
      "rotation": [
        -0.70710678118654746,
        -0,
        -0,
        0.70710678118654757
      ]
    },
    {
      "children": [
        2
      ],
      "name": "RootNode (model correction matrix)"
    },
    {
      "children": [
        3,
        4,
        5,
        6,
        7,
        8,
        9,
        10
      ],
      "name": "282f352bac5b4e1fa59b36d5cf414583.obj.cleaner"
    },
    {
      "mesh": 0,
      "name": ""
    },
    {
      "mesh": 1,
      "name": ""
    },
    {
      "mesh": 2,
      "name": ""
    },
    {
      "mesh": 3,
      "name": ""
    },
    {
      "mesh": 4,
      "name": ""
    },
    {
      "mesh": 5,
      "name": ""
    },
    {
      "mesh": 6,
      "name": ""
    },
    {
      "mesh": 7,
      "name": ""
    }
  ],
  "samplers": [
    {
      "magFilter": 9729,
      "minFilter": 9987,
      "wrapS": 10497,
      "wrapT": 10497
    }
  ],
  "scene": 0,
  "scenes": [
    {
      "name": "OSG_Scene",
      "nodes": [
        0
      ]
    }
  ],
  "textures": [
    {
      "sampler": 0,
      "source": 0
    },
    {
      "sampler": 0,
      "source": 1
    },
    {
      "sampler": 0,
      "source": 2
    },
    {
      "sampler": 0,
      "source": 3
    },
    {
      "sampler": 0,
      "source": 4
    },
    {
      "sampler": 0,
      "source": 5
    }
  ]
}

