{
  "accessors": [
    {
      "bufferView": 1,
      "componentType": 5126,
      "count": 4707,
      "max": [
        0.61484301090240479,
        0.57438600063323975,
        1.1165299415588379
      ],
      "min": [
        0.10256899893283844,
        -0.61413800716400146,
        0.22328400611877441
      ],
      "type": "VEC3"
    },
    {
      "bufferView": 1,
      "byteOffset": 56484,
      "componentType": 5126,
      "count": 4707,
      "max": [
        0.99984341859817505,
        0.9993017315864563,
        0.99999523162841797
      ],
      "min": [
        -0.999869704246521,
        -0.99999958276748657,
        -0.99977099895477295
      ],
      "type": "VEC3"
    },
    {
      "bufferView": 0,
      "componentType": 5125,
      "count": 15426,
      "max": [
        4706
      ],
      "min": [
        0
      ],
      "type": "SCALAR"
    }
  ],
  "asset": {
    "extras": {
      "author": "tomkart (https://sketchfab.com/tomkart)",
      "license": "CC-BY-4.0 (http://creativecommons.org/licenses/by/4.0/)",
      "source": "https://sketchfab.com/models/a8503189a20a441893b66e4c57d3231b",
      "title": "Race Car Driver"
    },
    "generator": "Sketchfab-3.41.1",
    "version": "2.0"
  },
  "bufferViews": [
    {
      "buffer": 0,
      "byteLength": 61704,
      "byteOffset": 0,
      "name": "floatBufferViews",
      "target": 34963
    },
    {
      "buffer": 0,
      "byteLength": 112968,
      "byteOffset": 61704,
      "byteStride": 12,
      "name": "floatBufferViews",
      "target": 34962
    }
  ],
  "buffers": [
    {
      "byteLength": 174672,
      "uri": "scene.bin"
    }
  ],
  "materials": [
    {
      "doubleSided": true,
      "name": "Scene_-_Root",
      "pbrMetallicRoughness": {
        "baseColorFactor": [
          0.52597470950000003,
          0.52597470950000003,
          0.52597470950000003,
          1
        ],
        "metallicFactor": 0,
        "roughnessFactor": 1
      }
    }
  ],
  "meshes": [
    {
      "primitives": [
        {
          "attributes": {
            "NORMAL": 1,
            "POSITION": 0
          },
          "indices": 2,
          "material": 0,
          "mode": 4
        }
      ]
    }
  ],
  "nodes": [
    {
      "children": [
        1
      ],
      "name": "RootNode (gltf orientation matrix)",
      "rotation": [
        -0.70710678118654746,
        -0,
        -0,
        0.70710678118654757
      ]
    },
    {
      "children": [
        2
      ],
      "name": "RootNode (model correction matrix)"
    },
    {
      "children": [
        3
      ],
      "name": "7b9be0954833418bb8617ffdf56b1f90.stl.cleaner.materialmerger.gles"
    },
    {
      "mesh": 0,
      "name": ""
    }
  ],
  "scene": 0,
  "scenes": [
    {
      "name": "OSG_Scene",
      "nodes": [
        0
      ]
    }
  ]
}

